# xmcd
#
# Track frame offsets:
#	150
#	14350
#	26993
#	46230
#	59237
#	88312
#	101458
#	113050
#	126495
#	136067
#	149256
#	170030
#	183715
#	194561
#	206886
#	222365
#	238972
#	248386
#	256020
#	271538
#
# Disc length: 3738 seconds
#
# Revision: 0
# Processed by: cddbd v1.5.2PL0 Copyright (c) Steve Scherf et al.
# Submitted via: EasyCDDAExtractor 16.0.6.1
#
DISCID=350e9814
DTITLE=Συλλογικός δίσκος - Τα μεγάλα τραγούδια-Μ. Θεοδωράκης 10
DYEAR=2010
DGENRE=Λαϊκή
TTITLE0=Πουλόπουλος Γιάννης - Χρυσοπράσινο φύλλο [Λεωνίδας Μαλένης]
TTITLE1=Φαραντούρη Μαρία - Του μικρού βοριά [Οδυσσέας Ελύτης]
TTITLE2=Μητσιάς Μανώλης - Μαρίνα [Οδυσσέας Ελύτης]
TTITLE3=Γλυκερία - Χωρίς φεγγάρια [Κώστας Τριπολίτης]
TTITLE4=Πανδής Πέτρος - Και περνούσαν τα τραμ [Μανόλης Αναγνωστάκης]
TTITLE5=Φαραντούρη Μαρία - Διότι δεν συνεμορφώθην [Μίκης Θεοδωράκης]
TTITLE6=Ψαριανός Δημήτρης - Δακρυσμένα μάτια [Γιάννης Θεοδωράκης]
TTITLE7=Μάνου Αφροδίτη - Έλληνες, τούρκοι κι Ιταλοί [Φώντας Λάδης]
TTITLE8=Καμένος Κώστας-Βιτάλη Ελένη - Πράσινη μέρα [Γιάννης Ρίτσος]
TTITLE9=Θεοδωράκης Μίκης - Πήρα τους δρόμους του ληστή [Μάνος Ελευθερίου]
TTITLE10=Σταμπογλής Χριστόφορος - Το παράθυρο [Brendan Francis Behan, απ. Βασ.
TTITLE10=Ρώτας]
TTITLE11=Ζωγράφος Γιώργος - Όταν τελειώσει ο πόλεμος [Ιάκ. Καμπανέλλης]
TTITLE12=Αρλέτα - Η καλόγρια η τσιγγάνα [Φ. Γ. Λόρκα, απ. Οδ. Ελύτης]
TTITLE13=Ζορμπαλά Μαργαρίτα - Θλιμμένη ματιά Δημήτρης Χριστοδούλου]
TTITLE14=Δημητριάδη Μαρία - Στου κάτω κόσμου την αυλή [Μάνος Ελευθερίου]
TTITLE15=Λίντα Μαίρη - Η μυρτιά [Νίκος Γκάτσος]
TTITLE16=Δημητριάδη Μαρία-Καμένος Κώστας - Καρτέρεμα [Γιάννης Ρίτσος]
TTITLE17=Θεοδωράκης Μίκης - Θα σού στείλω μάννα [Brendan Francis Behan, απ.Βασ
TTITLE17=Ρώτας]
TTITLE18=Χατζής Κώστας - Χάθηκα [Γιάννης Θεοδωράκης]
TTITLE19=Άνευ ερμηνευτού - Το γελαστό παιδί [οργανικό]
EXTD=
EXTT0=
EXTT1=
EXTT2=
EXTT3=
EXTT4=
EXTT5=
EXTT6=
EXTT7=
EXTT8=
EXTT9=
EXTT10=
EXTT11=
EXTT12=
EXTT13=
EXTT14=
EXTT15=
EXTT16=
EXTT17=
EXTT18=
EXTT19=
PLAYORDER=
